<?xml version="1.0" standalone="no"?>
<!DOCTYPE svg PUBLIC "-//W3C//DTD SVG 20010904//EN"
 "http://www.w3.org/TR/2001/REC-SVG-20010904/DTD/svg10.dtd">
<svg version="1.0" xmlns="http://www.w3.org/2000/svg"
 width="12992.000000pt" height="12809.000000pt" viewBox="0 0 12992.000000 12809.000000"
 preserveAspectRatio="xMidYMid meet">

<g transform="translate(0.000000,12809.000000) scale(0.100000,-0.100000)"
fill="#000000" stroke="none">
<path d="M63383 92323 l-123 -4 0 -119 0 -120 -245 0 -245 0 0 -120 0 -120
-360 0 -360 0 0 -119 0 -119 -250 -7 -250 -7 0 -119 0 -119 -240 0 -240 0 0
-120 0 -120 -245 0 -245 0 0 -119 0 -119 -485 -7 -485 -7 0 -119 0 -119 -1333
0 -1334 0 -6 188 c-4 103 -7 267 -7 365 l0 177 -240 0 -240 0 0 120 0 120
-120 0 -120 0 0 125 0 125 -365 0 -365 0 0 120 0 120 -125 0 -125 0 0 120 0
120 -850 0 -850 0 0 -240 0 -240 -490 0 -490 0 0 -125 0 -125 -120 0 -120 0 0
-120 0 -120 -245 0 -245 0 0 -245 0 -245 -120 0 -120 0 0 -120 0 -120 -245 0
-245 0 0 -7723 c0 -4248 3 -7806 7 -7905 l6 -182 12404 0 12403 0 0 7905 0
7905 -245 0 -245 0 0 365 0 365 -240 0 -239 0 -3 123 -3 122 -117 3 -118 3 0
119 0 120 -125 0 -125 0 0 -245 0 -245 -1580 0 -1580 0 0 245 0 245 -245 0
-245 0 0 -245 0 -245 -365 0 -365 0 0 -245 0 -245 -125 0 -125 0 0 -120 0
-120 -115 0 -115 0 -2 853 -3 852 -3040 0 c-1672 1 -3095 -1 -3162 -2z m11547
-1333 l0 -120 -2185 0 -2185 0 0 120 0 120 2185 0 2185 0 0 -120z m-5347 -797
c9 -242 9 -1380 0 -2546 l-6 -917 -849 0 -848 0 0 -120 0 -120 -120 0 -120 0
0 120 0 120 -245 0 -245 0 0 125 0 125 -240 0 -240 0 0 113 0 114 -187 6
c-104 4 -324 7 -490 7 l-303 0 0 120 0 120 -850 0 -850 0 0 -120 0 -120 -302
0 c-167 0 -387 -3 -490 -7 l-188 -6 0 -114 0 -113 -240 0 -240 0 0 -125 0
-125 -245 0 -245 0 0 -120 0 -120 -120 0 -120 0 0 -119 0 -118 -240 -8 -240
-7 0 -119 0 -119 -125 0 -125 0 0 -125 0 -125 -120 0 -119 0 -3 -117 -3 -118
-116 -3 -117 -3 -7 -239 -7 -240 -119 0 -119 0 0 -245 0 -245 -125 0 -125 0 0
-240 0 -239 -117 -3 -118 -3 -3 -362 -2 -363 -120 0 -120 0 0 -1220 0 -1220
120 0 120 0 0 -365 0 -365 120 0 120 0 0 -245 0 -245 125 0 125 0 0 -240 0
-240 120 0 120 0 0 -125 0 -125 119 0 119 0 7 -240 7 -240 119 0 119 0 0 -120
0 -119 123 -3 122 -3 3 -122 3 -123 239 0 240 0 0 -120 0 -120 125 0 125 0 0
-120 0 -120 -245 0 -245 0 0 120 0 120 -120 0 -120 0 0 120 0 120 -125 0 -125
0 0 120 0 119 -122 3 -123 3 -3 123 -3 122 -114 0 -115 0 0 120 0 120 -125 0
-125 0 0 245 0 245 -120 0 -120 0 0 120 0 120 -120 0 -120 0 0 245 0 245 -125
0 -125 0 0 365 0 365 -119 0 -118 0 -5 708 c-5 701 -5 1135 0 1845 l2 367 120
0 120 0 0 360 0 360 119 0 119 0 7 245 7 244 117 3 116 3 3 243 2 242 120 0
120 0 0 120 0 119 123 3 122 3 3 123 3 122 119 0 120 0 0 120 0 120 120 0 120
0 0 120 0 119 123 3 122 3 3 118 3 117 119 0 120 0 0 125 0 125 -4990 0 -4990
0 0 1825 0 1825 8998 0 8999 0 6 -187z m5655 -60 l182 -6 0 -1699 0 -1698
-2310 0 -2310 0 0 1705 0 1705 2128 0 c1171 0 2211 -3 2310 -7z m-6628 -4013
l0 -120 120 0 120 0 0 -120 0 -120 -120 0 -120 0 0 120 0 120 -120 0 -120 0 0
120 0 120 120 0 120 0 0 -120z m-5840 -2675 l0 -115 -120 0 -120 0 0 115 0
115 120 0 120 0 0 -115z m2440 1 l0 -114 240 -7 240 -7 0 -119 0 -119 119 0
119 0 7 -240 7 -240 119 0 119 0 0 -490 0 -490 -119 0 -119 0 -7 -239 -7 -239
-239 -7 -239 -7 0 -119 0 -119 -245 0 -245 0 0 -120 0 -120 -240 0 -240 0 0
120 0 120 -245 0 -245 0 0 120 0 119 -122 3 -123 3 -3 123 -3 122 -119 0 -120
0 0 365 0 365 -120 0 -120 0 0 120 0 120 120 0 120 0 0 245 0 245 120 0 120 0
0 120 0 120 125 0 125 0 0 120 0 120 120 0 120 0 0 120 0 120 490 0 490 0 0
-114z m-2680 -366 l0 -240 -120 0 -120 0 0 240 0 240 120 0 120 0 0 -240z
m7780 -610 l0 -120 -120 0 -120 0 0 120 0 120 120 0 120 0 0 -120z m-8030
-360 l0 -240 -115 0 -115 0 0 240 0 240 115 0 115 0 0 -240z m8030 -370 l0
-120 -120 0 -120 0 0 120 0 120 120 0 120 0 0 -120z m-7780 -365 l0 -245 -120
0 -120 0 0 245 0 245 120 0 120 0 0 -245z m240 -605 l0 -120 -120 0 -120 0 0
120 0 120 120 0 120 0 0 -120z m240 -240 l0 -120 -115 0 -115 0 0 120 0 120
115 0 115 0 0 -120z m250 -250 l0 -120 120 0 120 0 0 -120 0 -120 245 0 245 0
0 -120 0 -120 -245 0 -245 0 0 120 0 120 -120 0 -120 0 0 120 0 120 -120 0
-120 0 0 120 0 120 120 0 120 0 0 -120z m2430 -480 l0 -120 -120 0 -120 0 0
120 0 120 120 0 120 0 0 -120z m-490 -250 l0 -120 -360 0 -360 0 0 120 0 120
360 0 360 0 0 -120z m2680 -1940 l0 -120 -120 0 -120 0 0 120 0 120 120 0 120
0 0 -120z m-5350 -250 l0 -120 245 0 245 0 0 -120 0 -120 -245 0 -245 0 0 120
0 120 -240 0 -240 0 0 120 0 120 240 0 240 0 0 -120z m4870 0 l0 -120 -125 0
-125 0 0 120 0 120 125 0 125 0 0 -120z m-490 -240 l0 -120 -120 0 -120 0 0
120 0 120 120 0 120 0 0 -120z m-2680 -240 l0 -120 -485 0 -485 0 0 120 0 120
485 0 485 0 0 -120z m2190 0 l0 -120 -485 0 -485 0 0 120 0 120 485 0 485 0 0
-120z m-1220 -245 l0 -115 -485 0 -485 0 0 115 0 115 485 0 485 0 0 -115z
m10220 -975 l0 -360 -11920 0 -11920 0 0 360 0 360 11920 0 11920 0 0 -360z"/>
<path d="M61070 89285 l0 -855 3770 0 3770 0 0 855 0 855 -3770 0 -3770 0 0
-855z"/>
<path d="M9189 28444 c-3423 -5960 -6225 -10840 -6227 -10845 -2 -5 954 -9
2305 -9 l2308 0 1076 1848 c592 1016 1565 2698 2162 3737 1942 3380 4592 7968
4602 7967 6 -1 825 -1427 1822 -3169 l1812 -3168 2341 -3 2341 -2 -12 22 c-19
35 -8269 14399 -8288 14431 l-17 28 -6225 -10837z"/>
<path d="M114547 39273 c-46 -77 -12441 -21662 -12444 -21671 -4 -10 458 -12
2303 -10 l2309 3 1023 1755 c563 965 1485 2558 2049 3540 564 982 1867 3244
2895 5027 l1871 3243 1817 -3178 1817 -3177 2342 -3 2343 -2 -20 32 c-11 18
-1873 3259 -4137 7203 -4743 8259 -4161 7249 -4168 7238z"/>
<path d="M37120 32788 c0 -4164 4 -6500 10 -6623 14 -256 36 -502 66 -725 300
-2249 1505 -4192 3556 -5735 1619 -1218 3511 -1912 5673 -2080 618 -48 1356
-47 1995 1 2736 205 5090 1282 6965 3185 116 118 263 273 326 344 1332 1499
2013 3215 2066 5198 l6 247 -2065 0 -2065 0 -6 -177 c-25 -657 -178 -1267
-466 -1849 -146 -297 -305 -554 -506 -819 -275 -364 -662 -762 -1050 -1080
-1015 -833 -2158 -1295 -3535 -1431 -222 -22 -877 -30 -1133 -15 -1729 106
-3128 732 -4292 1922 -405 414 -706 835 -939 1314 -242 496 -381 992 -453
1610 -16 141 -18 548 -20 6648 l-3 6497 -2065 0 -2065 0 0 -6432z"/>
<path d="M53370 35125 l0 -4095 2205 0 2205 0 0 4095 0 4095 -2205 0 -2205 0
0 -4095z"/>
<path d="M69170 39216 c0 -3 482 -728 1070 -1613 l1070 -1608 233 -202 232
-203 4240 0 c2743 0 4291 -4 4385 -10 1092 -76 1994 -484 2799 -1265 552 -535
864 -1129 973 -1848 30 -195 32 -673 4 -872 -96 -700 -362 -1256 -857 -1795
-249 -270 -636 -584 -971 -787 -596 -361 -1252 -559 -1993 -602 -129 -8 -714
-7 -2074 4 -1042 8 -1897 13 -1899 10 -3 -2 404 -620 904 -1372 500 -753 2120
-3189 3599 -5415 l2690 -4048 2383 0 c1741 0 2381 3 2376 11 -3 6 -1149 1751
-2545 3878 l-2538 3866 27 12 c15 7 95 38 177 69 793 299 1550 734 2192 1261
767 628 1491 1485 1931 2288 431 786 671 1618 743 2570 25 337 13 897 -27
1250 -147 1295 -658 2438 -1559 3490 -338 394 -741 781 -1156 1107 -1276 1004
-2741 1592 -4419 1773 -487 52 -85 49 -6272 52 -3145 2 -5718 1 -5718 -1z"/>
<path d="M21193 21122 c17 -32 478 -840 1022 -1795 l990 -1737 2312 0 2312 0
-100 173 c-54 94 -521 901 -1037 1792 l-938 1620 -2297 3 -2297 2 33 -58z"/>
<path d="M120322 21138 c13 -24 473 -832 1023 -1795 l999 -1753 2308 0 c1269
0 2308 3 2308 8 -1 4 -466 810 -1034 1792 l-1034 1785 -2297 3 -2297 2 24 -42z"/>
<path d="M54887 10420 c-1255 -61 -2243 -358 -3032 -914 -279 -197 -604 -499
-801 -746 -421 -527 -655 -1102 -751 -1845 -23 -179 -26 -805 -5 -980 82 -665
304 -1216 697 -1725 113 -146 453 -487 610 -611 592 -471 1264 -772 2080 -934
889 -177 2001 -174 2900 6 814 163 1513 475 2079 929 721 578 1151 1306 1305
2210 36 208 52 392 58 650 15 672 -97 1218 -358 1740 -142 283 -303 519 -516
755 -724 801 -1763 1288 -3048 1429 -339 37 -866 53 -1218 36z m648 -820 c827
-50 1478 -248 2010 -611 602 -411 987 -1000 1135 -1739 117 -580 97 -1268 -51
-1775 -103 -353 -270 -676 -486 -945 -93 -116 -276 -298 -403 -399 -572 -459
-1294 -709 -2235 -772 -223 -15 -762 -6 -950 16 -522 60 -943 178 -1336 376
-784 392 -1331 1030 -1548 1804 -72 253 -108 508 -118 810 -23 767 181 1425
609 1968 100 127 340 367 473 472 533 426 1173 679 1945 770 282 33 653 43
955 25z"/>
<path d="M91140 10423 c-1058 -38 -1935 -248 -2725 -652 -816 -417 -1442 -991
-1819 -1667 -178 -321 -311 -708 -375 -1089 -41 -244 -46 -323 -46 -680 0
-382 8 -481 65 -765 172 -863 664 -1584 1465 -2145 578 -405 1327 -687 2152
-809 394 -59 703 -79 1188 -79 892 1 1621 86 2283 269 176 49 509 159 530 176
9 8 12 108 12 438 0 234 -2 429 -5 432 -3 3 -63 -19 -133 -50 -171 -73 -526
-190 -747 -246 -431 -108 -851 -169 -1354 -197 -274 -15 -850 -6 -1056 16
-564 60 -1025 183 -1442 385 -1111 537 -1692 1439 -1693 2626 -1 847 278 1553
830 2104 575 574 1365 938 2313 1064 308 41 461 50 847 50 368 0 521 -8 835
-44 507 -59 1046 -191 1486 -365 75 -29 112 -40 115 -32 2 7 3 223 2 481 l-3
469 -75 24 c-338 104 -806 194 -1240 237 -431 44 -1006 64 -1410 49z"/>
<path d="M25845 10288 c-3 -7 -4 -1725 -3 -3818 l3 -3805 605 0 605 0 3 1438
2 1437 658 0 c715 0 1118 11 1379 35 934 88 1665 351 2229 801 403 321 662
708 770 1149 72 296 73 696 2 1000 -164 705 -713 1232 -1587 1522 -359 119
-687 181 -1246 235 -186 17 -3413 24 -3420 6z m3025 -818 c991 -61 1612 -347
1869 -860 99 -199 135 -366 135 -630 0 -273 -44 -471 -150 -669 -251 -473
-810 -785 -1604 -896 -306 -42 -412 -47 -1247 -52 l-813 -5 0 1561 0 1561 823
0 c452 0 896 -5 987 -10z"/>
<path d="M38120 6480 l0 -3820 605 0 605 0 0 1626 0 1626 618 -5 c643 -5 708
-8 930 -53 462 -92 850 -341 1266 -814 56 -63 512 -625 1015 -1247 l913 -1133
720 0 c415 0 718 4 716 9 -4 11 -1975 2349 -2183 2590 -432 500 -746 740
-1172 896 -57 21 -103 41 -103 45 0 4 19 10 43 14 23 4 123 27 222 51 1024
252 1712 774 1939 1469 110 335 105 776 -10 1109 -88 253 -219 452 -436 663
-473 460 -1228 724 -2243 784 -100 6 -840 10 -1807 10 l-1638 0 0 -3820z
m3218 2989 c890 -63 1469 -371 1652 -878 53 -147 65 -218 65 -406 0 -181 -13
-267 -60 -405 -176 -518 -705 -885 -1455 -1009 -229 -38 -323 -41 -1277 -41
l-933 0 0 1375 0 1375 931 0 c551 0 990 -4 1077 -11z"/>
<path d="M67510 7773 c0 -1589 -4 -2582 -10 -2673 -24 -348 -78 -609 -177
-855 -187 -466 -529 -756 -1005 -855 -166 -34 -290 -43 -522 -37 -380 8 -590
53 -913 194 -10 4 -13 -87 -13 -436 l0 -442 35 -15 c87 -36 352 -85 565 -105
196 -18 622 -15 808 5 404 44 705 127 1027 286 274 135 475 281 690 501 421
432 639 946 717 1689 10 99 13 652 13 2695 l0 2570 -607 3 -608 2 0 -2527z"/>
<path d="M75365 10288 c-3 -7 -4 -1725 -3 -3818 l3 -3805 2735 0 2735 0 0 405
0 405 -2127 3 -2128 2 0 1330 0 1330 1860 0 1860 0 0 405 0 405 -1860 0 -1860
0 0 1265 0 1265 2013 2 2012 3 0 405 0 405 -2618 3 c-2089 2 -2619 0 -2622
-10z"/>
<path d="M98930 9890 l0 -410 1485 0 1485 0 0 -3410 0 -3410 605 0 605 0 0
3410 0 3410 1490 0 1490 0 0 410 0 410 -3580 0 -3580 0 0 -410z"/>
</g>
</svg>
